 http://img37.imageshack.us/img37/2263/73508063.jpg

Country.......: USA
Genre.........: Comedy, Horror
Date release..: 10.01.2011 [World]
Director......: Sean Skelding
Writers.......: Brad McCray
Duration......: 103 min.
More..........: http://www.imdb.com/title/tt1710900
Trailer.......:

Pilot :
The world is changing - all the strippers and the youth girls aspiring to the profession will be transformed into a zombie. In a city that embraces the plague, a young nerd joins forces with an experienced killer. During the escape faced rapper who tries to make a deal on the undead dancers.

Cats :
Ben Sheppard   	 ...  	Idaho
Jamison Challeen 	... 	Frisco
Maren McGuire 	... 	Virginia
Ileana Herrin 	... 	West
Hank Cartwright 	... 	Guy Gibson
Daniel Baldwin 	... 	Double D
Lloyd Kaufman 	... 	Phillip
Linnea Quigley 	... 	Grambo
Shel Bailey 	... 	Barbara
Boyd Banks 	... 	Maestro
Brad McCray 	... 	Cult Leader
Jennifer Loomis 	... 	Zombie
Jessica Jackson 	... 	Chained Zombie
Fabian Gordon 	... 	Lead Goon 

Data Technical :
!!! SAMPLE !!!
Audio.....: English
Subtitles.: None
Format                           : AVI
Format/Info                      : Audio Video Interleave
File size                        : 851 MiB
Duration                         : 1h 43mn
Overall bit rate                 : 1 151 Kbps
Writing application              : MEncoder version 4.1.5 building on 20101022
Video
ID                               : 0
Format                           : MPEG-4 Visual
Format profile                   : Advanced Simple@L5
Format settings, BVOP            : Yes
Format settings, QPel            : No
Format settings, GMC             : No warppoints
Format settings, Matrix          : Default (H.263)
Codec ID                         : XVID
Codec ID/Hint                    : XviD
Duration                         : 1h 43mn
Bit rate                         : 954 Kbps
Width                            : 704 pixels
Height                           : 396 pixels
Display aspect ratio             : 16:9
Frame rate                       : 23.976 fps
Color space                      : YUV
Chroma subsampling               : 4:2:0
Bit depth                        : 8 bits
Scan type                        : Progressive
Bits/(Pixel*Frame)               : 0.143
Stream size                      : 705 MiB (83%)
Writing library                  : XviD 1.2.1 (UTC 2008-12-04)
Audio
ID                               : 1
Format                           : AC-3
Format/Info                      : Audio Coding 3
Mode extension                   : CM (complete main)
Codec ID                         : 2000
Duration                         : 1h 43mn
Bit rate mode                    : Constant
Bit rate                         : 192 Kbps
Channel(s)                       : 2 channels
Channel positions                : Front: L R
Sampling rate                    : 48.0 KHz
Bit depth                        : 16 bits
Video delay                      : 42ms
Stream size                      : 142 MiB (17%)
Alignment                        : Split accross interleaves
Interleave, duration             : 500 ms (11.99 video frames)
Interleave, preload duration     : 500 ms

Screen : 
http://img707.imageshack.us/img707/781/stripperland2011s1.jpg 
http://img35.imageshack.us/img35/9893/stripperland2011s2.jpg 
http://img848.imageshack.us/img848/705/stripperland2011s3.jpg 
http://img84.imageshack.us/img84/2028/stripperland2011s4.jpg 
http://img217.imageshack.us/img217/4430/stripperland2011s5.jpg